<svg xmlns="http://www.w3.org/2000/svg" viewBox="0 0 256 256">
  <defs>
    <linearGradient id="bg" x1="24" y1="20" x2="232" y2="236" gradientUnits="userSpaceOnUse">
      <stop offset="0" stop-color="#2E405B"/>
      <stop offset="1" stop-color="#4E6A8F"/>
    </linearGradient>
  </defs>
  <rect x="16" y="16" width="224" height="224" rx="52" fill="url(#bg)"/>
  <rect x="56" y="44" width="144" height="168" rx="20" fill="#FFF7EB"/>
  <rect x="56" y="44" width="24" height="168" rx="12" fill="#EEDCC6"/>
  <circle cx="158" cy="90" r="28" fill="none" stroke="#2E405B" stroke-width="6"/>
  <path d="M130 90H186M158 62C165 70 169 80 169 90C169 100 165 110 158 118C151 110 147 100 147 90C147 80 151 70 158 62Z" fill="none" stroke="#2E405B" stroke-width="5.5" stroke-linecap="round" stroke-linejoin="round"/>
  <path d="M92 126H180M92 148H180M92 170H166" stroke="#2E405B" stroke-width="7" stroke-linecap="round"/>
</svg>
